<?xml version="1.0" encoding="UTF-8" standalone="no"?>
<!DOCTYPE svg PUBLIC "-//W3C//DTD SVG 1.1//EN" "http://www.w3.org/Graphics/SVG/1.1/DTD/svg11.dtd">
<svg width="100%" height="100%" viewBox="0 0 52 75" version="1.1" xmlns="http://www.w3.org/2000/svg" xmlns:xlink="http://www.w3.org/1999/xlink" xml:space="preserve" xmlns:serif="http://www.serif.com/" style="fill-rule:evenodd;clip-rule:evenodd;stroke-linejoin:round;stroke-miterlimit:2;">
    <g>
        <g>
            <g>
                <path d="M26.006,16.01C15.529,16.01 7.006,24.533 7.006,35.01C7.006,45.487 15.529,54.01 26.006,54.01C36.483,54.01 45.006,45.487 45.006,35.01C45.006,24.533 36.483,16.01 26.006,16.01M26.006,56.01C14.427,56.01 5.006,46.59 5.006,35.01C5.006,23.43 14.427,14.01 26.006,14.01C37.585,14.01 47.006,23.43 47.006,35.01C47.006,46.59 37.585,56.01 26.006,56.01"/>
                <path d="M19.773,17.013C19.255,17.013 18.818,16.615 18.777,16.091C18.598,13.805 18.341,11.476 18.092,9.224L18.054,8.885C18.028,8.652 18.012,8.413 18.007,8.17C17.965,6.076 18.776,4.062 20.291,2.5C21.804,0.94 23.881,0.032 25.988,0.01C28.128,0.034 30.126,0.798 31.635,2.291C33.164,3.805 34.006,5.835 34.006,8.01C34.006,8.502 33.961,8.995 33.87,9.476C33.503,11.427 33.262,13.57 33.134,16.028C33.105,16.579 32.63,16.995 32.084,16.974C31.532,16.945 31.108,16.475 31.136,15.923C31.27,13.375 31.52,11.146 31.904,9.107C31.972,8.747 32.005,8.378 32.005,8.01C32.005,6.373 31.375,4.847 30.228,3.712C29.116,2.613 27.644,2.01 26.074,2.01L26.01,2.01C24.432,2.026 22.871,2.713 21.726,3.893C20.586,5.068 19.976,6.574 20.007,8.132C20.01,8.311 20.022,8.487 20.042,8.661L20.08,9.005C20.331,11.272 20.59,13.617 20.77,15.935C20.814,16.486 20.402,16.967 19.852,17.01C19.826,17.012 19.799,17.013 19.773,17.013"/>
                <path d="M26.006,21.01C18.286,21.01 12.006,27.29 12.006,35.01C12.006,42.73 18.286,49.01 26.006,49.01C33.726,49.01 40.006,42.73 40.006,35.01C40.006,27.29 33.726,21.01 26.006,21.01M26.006,51.01C17.184,51.01 10.006,43.832 10.006,35.01C10.006,26.188 17.184,19.01 26.006,19.01C34.828,19.01 42.006,26.188 42.006,35.01C42.006,43.832 34.828,51.01 26.006,51.01"/>
                <path d="M22.624,40.01L29.388,40.01L31.888,35.01L29.388,30.01L22.624,30.01L20.124,35.01L22.624,40.01ZM30.006,42.01L22.006,42.01C21.627,42.01 21.281,41.796 21.111,41.457L18.111,35.457C17.971,35.176 17.971,34.844 18.111,34.563L21.111,28.563C21.281,28.224 21.627,28.01 22.006,28.01L30.006,28.01C30.385,28.01 30.73,28.224 30.9,28.563L33.9,34.563C34.041,34.844 34.041,35.176 33.9,35.457L30.9,41.457C30.73,41.796 30.385,42.01 30.006,42.01Z"/>
                <path d="M41.006,36.01L33.006,36.01C32.627,36.01 32.281,35.796 32.111,35.457L29.111,29.457C28.971,29.176 28.971,28.844 29.111,28.563L32.111,22.563C32.36,22.068 32.958,21.868 33.453,22.115C33.947,22.363 34.148,22.963 33.901,23.457L31.124,29.01L33.624,34.01L41.006,34.01C41.559,34.01 42.006,34.458 42.006,35.01C42.006,35.562 41.559,36.01 41.006,36.01"/>
                <path d="M33.007,48.01C32.64,48.01 32.287,47.808 32.111,47.457L29.111,41.457C28.971,41.176 28.971,40.844 29.111,40.563L32.111,34.563C32.36,34.069 32.958,33.868 33.453,34.115C33.947,34.363 34.148,34.963 33.901,35.457L31.124,41.01L33.901,46.563C34.148,47.057 33.947,47.657 33.453,47.905C33.31,47.976 33.157,48.01 33.007,48.01"/>
                <path d="M19.005,48.01C18.855,48.01 18.702,47.976 18.559,47.905C18.065,47.657 17.864,47.057 18.111,46.563L20.888,41.01L18.111,35.457C17.864,34.963 18.065,34.363 18.559,34.115C19.053,33.868 19.653,34.069 19.901,34.563L22.901,40.563C23.041,40.844 23.041,41.176 22.901,41.457L19.901,47.457C19.725,47.808 19.372,48.01 19.005,48.01"/>
                <path d="M19.006,36.01L11.006,36.01C10.453,36.01 10.006,35.562 10.006,35.01C10.006,34.458 10.453,34.01 11.006,34.01L18.388,34.01L20.888,29.01L18.111,23.457C17.864,22.963 18.065,22.363 18.559,22.115C19.053,21.868 19.653,22.068 19.901,22.563L22.901,28.563C23.041,28.844 23.041,29.176 22.901,29.457L19.901,35.457C19.731,35.796 19.385,36.01 19.006,36.01"/>
                <path d="M46.905,56.351C45.624,56.351 44.343,55.864 43.369,54.889L38.88,50.399C38.489,50.008 38.489,49.375 38.88,48.985C39.27,48.594 39.903,48.594 40.294,48.985L44.783,53.475C45.954,54.645 47.857,54.644 49.026,53.475C49.593,52.908 49.905,52.155 49.905,51.353C49.905,50.552 49.593,49.799 49.026,49.232L43.596,43.802C43.206,43.412 43.206,42.779 43.596,42.388C43.987,41.997 44.62,41.997 45.01,42.388L50.44,47.818C51.384,48.762 51.905,50.018 51.905,51.353C51.905,52.689 51.384,53.944 50.44,54.889C49.466,55.863 48.185,56.351 46.905,56.351"/>
                <path d="M44.372,28.08C44.116,28.08 43.86,27.982 43.665,27.787C43.274,27.397 43.274,26.764 43.665,26.373L49.026,21.01C49.593,20.443 49.905,19.69 49.905,18.889C49.905,18.087 49.593,17.334 49.026,16.767C47.857,15.599 45.954,15.598 44.783,16.767L40.408,21.143C40.018,21.533 39.385,21.533 38.994,21.143C38.603,20.752 38.603,20.119 38.994,19.728L43.369,15.353C45.317,13.405 48.49,13.403 50.44,15.353C51.385,16.298 51.905,17.553 51.905,18.889C51.905,20.225 51.385,21.48 50.44,22.424L45.079,27.787C44.884,27.982 44.628,28.08 44.372,28.08"/>
                <path d="M7.639,28.081C7.383,28.081 7.127,27.983 6.932,27.788L1.571,22.424C-0.379,20.475 -0.379,17.303 1.571,15.353C3.52,13.405 6.693,13.403 8.642,15.353L13.017,19.728C13.408,20.119 13.408,20.752 13.017,21.143C12.626,21.533 11.993,21.533 11.603,21.143L7.228,16.768C6.057,15.598 4.154,15.599 2.985,16.768C1.816,17.937 1.816,19.84 2.985,21.01L8.346,26.374C8.737,26.765 8.737,27.398 8.346,27.788C8.151,27.983 7.895,28.081 7.639,28.081"/>
                <path d="M5.106,56.351C3.826,56.351 2.545,55.864 1.571,54.889C-0.379,52.939 -0.379,49.767 1.571,47.818L7.001,42.388C7.391,41.997 8.024,41.997 8.415,42.388C8.805,42.779 8.805,43.412 8.415,43.802L2.985,49.232C1.815,50.402 1.815,52.305 2.985,53.475C4.121,54.609 6.094,54.607 7.228,53.475L11.717,48.985C12.108,48.594 12.741,48.594 13.131,48.985C13.522,49.375 13.522,50.008 13.131,50.399L8.642,54.889C7.668,55.864 6.387,56.351 5.106,56.351"/>
                <path d="M32.002,60.01C26.163,60.01 23.749,57.446 22.752,55.294C22.52,54.793 22.737,54.199 23.238,53.967C23.743,53.736 24.335,53.953 24.566,54.453C25.479,56.42 27.367,57.579 30.193,57.91C29.831,57.12 29.46,56.063 29.233,54.734C29.14,54.19 29.506,53.673 30.05,53.58C30.606,53.487 31.111,53.854 31.204,54.397C31.655,57.035 32.75,58.342 32.762,58.355C33.015,58.652 33.075,59.072 32.911,59.426C32.748,59.78 32.397,60.01 32.006,60.01L32.002,60.01Z"/>
                <path d="M24.006,7.01C24.006,7.562 23.558,8.01 23.006,8.01C22.453,8.01 22.006,7.562 22.006,7.01C22.006,6.458 22.453,6.01 23.006,6.01C23.558,6.01 24.006,6.458 24.006,7.01"/>
                <path d="M30.006,7.01C30.006,7.562 29.558,8.01 29.006,8.01C28.453,8.01 28.006,7.562 28.006,7.01C28.006,6.458 28.453,6.01 29.006,6.01C29.558,6.01 30.006,6.458 30.006,7.01"/>
            </g>
        </g>
    </g>
</svg>
